PathFileType  4	(X/Y/Z) C:\Users\antoi\Documents\MyRepositories\mobilecap\ResultsAnalysis
DataRate	CameraRate	NumFrames	NumMarkers	Units	OrigDataRate	OrigDataStartFrame	OrigNumFrames
100.0	100.0	4	51	mm	100.0	256	341
Frame#	Time	r_knee			r_shank_antsup			r_ankle			r_calc			r_5meta			r_toe			L_knee			L_shank_antsup			L_ankle			L_calc			L_5meta			L_toe			r_sh2			r_sh3			r_sh4			L_sh2			L_sh3			r_thigh1			r_thigh2			r_thigh3			r_thigh4			r_thigh5			L_thigh1			L_thigh2			L_thigh3			L_thigh4			r.ASIS			r.PSIS			L.ASIS			L.PSIS			C7			R_Shoulder			L_Shoulder			R_Sternum			L_Sternum			R_humerus			R_elbow_med			R_elbow_lat			R_forearm			R_wrist_radius			R_wrist_ulna			L_humerus			L_elbow_med			L_elbow_lat			L_forearm			L_wrist_radius			L_wrist_ulna			R_HJC			L_HJC			R_HJC_reg			L_HJC_reg			
		X1	Y1	Z1	X2	Y2	Z2	X3	Y3	Z3	X4	Y4	Z4	X5	Y5	Z5	X6	Y6	Z6	X7	Y7	Z7	X8	Y8	Z8	X9	Y9	Z9	X10	Y10	Z10	X11	Y11	Z11	X12	Y12	Z12	X13	Y13	Z13	X14	Y14	Z14	X15	Y15	Z15	X16	Y16	Z16	X17	Y17	Z17	X18	Y18	Z18	X19	Y19	Z19	X20	Y20	Z20	X21	Y21	Z21	X22	Y22	Z22	X23	Y23	Z23	X24	Y24	Z24	X25	Y25	Z25	X26	Y26	Z26	X27	Y27	Z27	X28	Y28	Z28	X29	Y29	Z29	X30	Y30	Z30	X31	Y31	Z31	X32	Y32	Z32	X33	Y33	Z33	X34	Y34	Z34	X35	Y35	Z35	X36	Y36	Z36	X37	Y37	Z37	X38	Y38	Z38	X39	Y39	Z39	X40	Y40	Z40	X41	Y41	Z41	X42	Y42	Z42	X43	Y43	Z43	X44	Y44	Z44	X45	Y45	Z45	X46	Y46	Z46	X47	Y47	Z47	X48	Y48	Z48	X49	Y49	Z49	X50	Y50	Z50	X51	Y51	Z51	

256	2.55000000	-77.89896	418.87543	-378.45784	-102.82958	391.52312	-352.07226	-284.58372	99.15569	-404.59159	-354.46232	59.95159	-458.23109	-187.90077	40.03081	-342.74244	-136.16135	56.50584	-390.55908	-70.01225	419.50551	-778.99706	-58.01674	342.10325	-787.55713	-260.92726	99.27620	-752.38114	-337.77263	61.75172	-707.38926	-159.43842	39.95873	-785.85851	-110.71688	56.61878	-732.38335	-159.84491	289.30811	-351.57640	-36.46813	360.57093	-375.19210	-93.91378	261.82498	-394.56519	-130.96153	393.21121	-793.13705	-193.98440	283.49428	-783.33330	-290.08974	581.19752	-483.05724	-185.33060	558.21791	-455.63208	-184.56977	537.68476	-392.13681	-321.67117	548.39920	-383.29810	-219.87925	506.81629	-361.64157	-332.02899	560.73689	-759.65934	-202.90399	499.29259	-791.65800	-381.60161	464.96984	-775.68658	-257.68035	403.56845	-756.33797	-317.10740	608.37003	-462.73428	-485.12705	677.81117	-547.53773	-308.48535	584.05567	-691.86940	-480.01327	676.43721	-640.58718	-83.10528	984.03324	-574.20526	-47.23412	890.53937	-413.38492	-45.98093	882.54528	-731.59327	-58.88159	833.16962	-563.28966	-61.64400	828.66795	-581.15224	-213.67687	726.34905	-320.18983	-325.09218	713.80712	-340.04701	-296.71055	689.55251	-288.68793	-364.94808	564.87508	-266.90056	-434.59502	483.33794	-277.10925	-441.76400	500.28671	-236.90435	-219.11237	731.23569	-830.20036	-333.09289	706.69779	-795.10168	-310.90808	700.28848	-850.26367	-393.75946	606.65083	-908.17754	-465.91861	529.76253	-933.72161	-493.16743	561.98338	-922.87940	-405.13575	543.36342	-492.87608	-407.38737	539.05361	-683.48412	-398.71530	544.23923	-497.73302	-390.37138	542.00197	-649.67044	
257	2.56000000	-76.49324	418.55238	-380.31257	-101.69671	391.63754	-353.69811	-284.50751	99.19148	-404.88477	-354.47108	60.03244	-458.30405	-187.87688	40.09507	-342.78878	-136.14911	56.56525	-390.62810	-69.59761	420.15843	-778.15297	-57.69733	342.17080	-786.50277	-261.02733	99.40489	-752.34895	-337.81685	61.73583	-707.42367	-159.44275	39.97693	-785.87254	-110.74823	56.66402	-732.37924	-159.05111	289.36577	-352.99416	-35.49986	360.08926	-377.11500	-93.44047	261.56158	-395.98241	-130.47541	393.44482	-792.22362	-193.22077	284.60012	-784.10506	-286.24680	586.33278	-483.48535	-181.98605	560.92341	-456.31000	-181.25118	540.22331	-392.86275	-318.54336	552.80784	-383.91978	-216.98450	509.82128	-362.58629	-329.21579	566.79028	-759.34576	-201.31464	503.10892	-790.38102	-380.21194	472.18791	-775.84208	-258.11900	407.55460	-755.74249	-315.05878	614.65375	-462.83135	-481.96115	684.91718	-546.73269	-306.19993	591.33617	-692.70698	-477.26246	683.96190	-639.65830	-81.19351	991.23349	-574.39140	-45.63399	896.46473	-413.41175	-45.40717	889.92513	-732.31284	-56.57549	840.42052	-563.72863	-60.28440	835.49742	-581.83866	-211.58898	730.30224	-322.78762	-322.41704	716.76573	-345.10741	-294.90992	692.71306	-293.53694	-364.09751	569.58704	-270.82196	-434.55086	488.58827	-280.94536	-442.35739	506.82374	-241.01005	-216.95127	737.08826	-831.54545	-329.41203	708.16653	-795.60546	-307.19904	702.78834	-850.66473	-387.11554	606.03790	-908.35790	-455.70406	526.01934	-933.92083	-484.69734	556.39373	-922.16681	-402.74571	549.88830	-493.21892	-405.38949	546.72581	-683.84575	-396.43399	550.86924	-497.85610	-388.72757	549.30197	-650.26220	
258	2.57000000	-75.26389	418.20504	-382.12170	-100.86839	391.83706	-355.21987	-284.46721	99.29201	-405.02556	-354.49316	60.14377	-458.45657	-187.85854	40.17170	-342.83828	-136.13566	56.63449	-390.70768	-69.34221	421.06465	-777.54131	-57.66169	342.32990	-785.54946	-261.16973	99.53500	-752.35605	-337.87165	61.72122	-707.45883	-159.45058	39.98491	-785.90442	-110.78587	56.72411	-732.42668	-158.57309	289.69499	-354.06464	-34.74984	359.75441	-378.76335	-93.11881	261.47783	-397.19573	-130.15913	393.98515	-791.54618	-193.94935	284.51658	-782.73774	-282.08964	592.05463	-483.59823	-178.54891	563.84288	-456.65055	-177.98987	542.86053	-393.41236	-315.55009	557.48349	-384.62748	-214.29398	512.57510	-363.74003	-326.17617	573.11457	-759.09754	-199.71476	507.37007	-789.75899	-379.57794	479.56960	-775.41886	-258.51219	412.17810	-754.93271	-312.44619	620.37646	-464.00742	-478.69451	692.90154	-545.89190	-304.37438	597.92199	-693.39397	-474.32424	692.12548	-638.92993	-79.95998	999.88383	-574.55806	-44.52730	904.05128	-413.67610	-44.98030	899.36855	-732.97277	-54.45452	849.28153	-564.14317	-58.93188	844.01785	-582.81166	-209.58369	735.93286	-324.72812	-319.94588	720.97528	-348.91544	-292.91163	697.45224	-296.98615	-361.65513	574.58339	-273.73958	-431.24843	492.75944	-283.73933	-440.42175	512.36864	-244.52654	-213.42659	743.60451	-832.71824	-324.12933	709.82831	-796.42259	-301.89781	705.48088	-851.47000	-377.61531	604.35199	-908.70363	-441.74075	520.74133	-933.88876	-472.64371	549.10785	-922.52386	-400.65386	556.63338	-493.71897	-404.27302	554.45395	-684.34395	-394.48188	558.05317	-498.81583	-387.33814	556.78353	-650.85588	
259	2.58000000	-74.32752	418.15552	-383.63399	-100.34268	392.11000	-356.68618	-284.46563	99.46515	-405.06326	-354.52158	60.21392	-458.52197	-187.88006	40.20511	-342.96497	-136.14460	56.69393	-390.78533	-69.39520	421.87553	-776.79633	-57.91538	342.75035	-785.00154	-261.33602	99.63229	-752.37233	-337.95178	61.68188	-707.49199	-159.46685	39.98158	-785.95002	-110.87345	56.78902	-732.48018	-158.73240	290.79116	-354.41537	-34.32510	359.65304	-379.95318	-92.97493	261.53282	-398.00606	-130.55814	394.61087	-790.36174	-194.08994	285.15745	-782.30340	-277.85446	598.00961	-483.51272	-175.16722	566.82904	-456.76543	-174.93510	545.46892	-393.70867	-312.38781	562.32898	-385.09156	-211.53288	515.49863	-364.39185	-322.42160	580.08676	-759.26310	-198.09414	511.64223	-789.48629	-378.87754	487.37959	-774.24808	-258.72407	417.49644	-754.24182	-309.41148	626.28676	-465.27954	-475.43019	701.51720	-544.85715	-302.76762	604.60244	-694.03070	-471.39153	700.77882	-638.26545	-79.44151	1009.93552	-574.58016	-44.01663	913.23725	-413.92444	-44.74444	910.62087	-733.50149	-51.59629	860.20875	-563.91148	-57.71139	854.11578	-583.79528	-207.50060	743.11090	-325.94399	-317.51578	726.36489	-351.17595	-290.55101	703.56362	-298.97165	-357.41018	579.58327	-275.48207	-424.20921	495.66143	-285.25410	-435.67258	516.52246	-247.29586	-208.06915	750.14949	-833.37648	-317.18943	711.38591	-797.35725	-294.97372	708.01610	-852.33050	-365.24645	601.98889	-909.21261	-424.06037	514.40994	-933.48093	-457.13647	540.61256	-923.01166	-398.54573	563.82739	-494.10421	-403.45645	562.48847	-684.70734	-392.55367	565.73366	-499.76198	-385.99974	564.53528	-651.33021	
